<svg version="1.1" id="Layer_1" xmlns="http://www.w3.org/2000/svg" xmlns:xlink="http://www.w3.org/1999/xlink" x="0px" y="0px"
	 width="100%" viewBox="0 0 1024 560" enable-background="new 0 0 1024 560" xml:space="preserve">
<path fill="#000000" opacity="1.000000" stroke="none" 
	d="
M926.468628,561.000000 
	C930.339172,556.679138 931.065125,550.362122 934.642029,545.557129 
	C940.796692,537.289429 940.642700,527.261902 940.758667,517.740662 
	C940.882141,507.605133 943.936829,498.555908 947.369995,489.309937 
	C951.112976,479.229767 953.602417,468.883789 954.197937,457.911621 
	C954.751282,447.715515 953.296204,438.072876 950.826233,428.377502 
	C948.646973,419.823181 951.322510,411.507477 952.316345,403.132294 
	C953.671326,391.713562 955.919495,380.490479 959.999878,369.656281 
	C962.338318,363.447479 966.480164,362.124756 971.220825,366.825958 
	C974.613403,370.190308 978.281372,372.757355 983.003479,373.926758 
	C986.501221,374.792908 988.880981,377.563507 991.494141,379.892212 
	C996.025574,383.930267 998.285645,384.109344 1002.615479,379.866821 
	C1007.353943,375.223938 1012.520142,373.403046 1018.920837,375.492279 
	C1020.711121,376.076660 1022.526001,376.081329 1024.647339,375.160278 
	C1025.000000,436.904694 1025.000000,498.809418 1025.000000,561.000000 
	C992.312988,561.000000 959.625183,561.000000 926.468628,561.000000 
z"/>
<path fill="#000000" opacity="1.000000" stroke="none" 
	d="
M1.000000,515.468628 
	C5.072220,516.358948 9.261196,515.644653 13.391876,515.578186 
	C16.170788,515.533447 17.176474,516.514587 17.319639,519.307373 
	C17.803986,528.755615 18.667627,538.185730 19.074631,547.636169 
	C19.220358,551.019836 20.048523,552.122742 23.714773,552.017456 
	C40.515236,551.535156 57.324020,551.397583 74.135895,551.816956 
	C81.253624,551.994507 87.357986,554.731079 93.104370,558.469849 
	C97.004829,561.007629 108.183952,560.398621 111.530037,557.154480 
	C116.850983,551.995667 123.321678,549.989197 130.619598,549.974976 
	C157.583847,549.922485 184.548386,549.858521 211.511993,549.677246 
	C228.981506,549.559753 246.449448,549.219543 263.918457,549.009888 
	C266.245850,548.981934 268.588898,549.001038 270.900909,549.234314 
	C274.851166,549.632751 278.775085,550.002075 276.782135,555.948730 
	C275.852936,558.721252 277.857147,560.152283 280.732788,560.826172 
	C187.666641,561.000000 94.333298,561.000000 1.000000,561.000000 
	C1.000000,545.896973 1.000000,530.917114 1.000000,515.468628 
z"/>
<path fill="#000000" opacity="1.000000" stroke="none" 
	d="
M545.103516,420.220825 
	C570.496399,420.897278 595.409729,419.808502 620.334778,419.029877 
	C624.517761,418.899200 626.309753,415.191376 630.107971,414.693848 
	C635.197876,414.027100 633.496033,409.218597 634.023682,406.167450 
	C636.758484,390.353882 641.768616,375.188904 647.000488,360.110382 
	C648.282471,356.415558 645.934082,352.807526 648.303528,349.303833 
	C645.179932,347.588989 642.116028,348.326447 639.267517,348.441376 
	C616.993713,349.339996 594.717346,350.244659 572.463867,351.531067 
	C566.480835,351.876923 560.513245,352.246979 554.520996,352.300964 
	C550.836365,352.334167 548.006958,350.903687 546.372192,347.588257 
	C544.920288,344.643799 545.774536,342.118866 548.225098,340.025696 
	C549.039062,339.330444 549.169067,338.332550 549.118835,337.282867 
	C548.445984,323.224518 551.509644,309.487213 552.956482,295.626648 
	C554.847229,277.512512 554.808533,259.392090 554.697083,241.256516 
	C554.549561,217.268494 556.602722,193.360138 556.965881,169.392700 
	C557.062073,163.046021 560.000732,160.360260 566.434387,160.550598 
	C596.580200,161.442490 626.670715,159.581604 656.752625,158.357727 
	C675.172913,157.608307 693.610718,157.560104 712.013794,157.189590 
	C734.035339,156.746277 756.242859,154.608368 778.181396,158.692703 
	C784.162720,159.806244 790.157166,160.869446 795.983459,163.059402 
	C802.060669,165.343689 808.513123,162.992432 814.761963,162.413422 
	C821.196045,161.817261 827.700256,161.460556 833.895569,159.100586 
	C836.333496,158.171906 838.857666,158.976089 840.548767,161.283844 
	C842.091431,163.388962 842.943909,165.456589 841.650574,168.195328 
	C835.407532,181.415268 834.600708,195.754013 833.247620,209.985123 
	C831.245239,231.045059 833.287415,252.281296 830.352112,273.302246 
	C827.822693,291.416931 824.174438,309.329102 820.835205,327.298218 
	C819.562378,334.147552 820.192444,334.976105 826.997864,334.925751 
	C831.849731,334.889832 836.620056,335.236176 841.351868,336.450775 
	C845.245605,337.450195 847.558594,340.262482 846.626953,343.645996 
	C845.612671,347.329773 841.752319,347.831909 838.296448,346.542084 
	C833.147095,344.620178 827.784485,345.109375 822.498291,344.783722 
	C819.401489,344.592926 817.525208,345.990601 817.236389,349.387115 
	C816.955261,352.693115 816.393738,355.986481 815.765015,359.248688 
	C815.053528,362.940125 812.954834,365.587769 808.925842,364.968048 
	C804.686768,364.315979 804.785645,360.887848 805.219482,357.548462 
	C805.476746,355.567719 805.597656,353.569275 805.852356,351.588104 
	C806.817749,344.079468 806.828430,344.056946 799.043274,344.201385 
	C779.731079,344.559692 760.419189,344.938477 741.107422,345.321564 
	C739.610046,345.351227 738.113220,345.458496 736.618652,345.564728 
	C732.637695,345.847656 731.150757,348.130371 732.584961,351.663513 
	C739.685364,369.155487 742.044373,388.008057 748.253967,405.762421 
	C749.793945,410.165436 751.590210,412.022766 756.663879,411.917511 
	C776.298706,411.510132 795.947144,411.576416 815.587769,411.762970 
	C821.045349,411.814819 826.494385,412.880035 831.945068,413.500427 
	C833.955505,413.729248 836.236389,413.848541 836.168640,416.648468 
	C836.103271,419.349335 834.409485,420.807617 831.793335,421.274109 
	C825.147095,422.459198 818.474915,421.556732 811.868164,421.159271 
	C794.553711,420.117615 777.236450,420.406433 759.917114,420.308014 
	C756.979614,420.291351 754.714355,420.610687 752.852051,423.623322 
	C750.293152,427.762878 746.920349,427.785522 742.907349,424.601562 
	C740.261719,422.502502 736.965393,422.686401 733.922668,422.267456 
	C725.145447,421.058899 716.320435,421.949036 707.513428,422.075256 
	C706.552795,422.089020 705.589233,421.902313 704.489075,421.795135 
	C708.372498,427.064423 707.829346,428.675964 701.636414,429.423737 
	C693.295898,430.430878 685.090759,428.352112 676.823669,427.760040 
	C665.826172,426.972412 654.734985,426.369843 643.895020,427.526428 
	C633.013916,428.687378 622.251160,427.564240 611.430359,428.100983 
	C587.694275,429.278320 563.903870,429.915100 540.140076,429.807098 
	C520.850037,429.719482 501.532654,428.986420 482.267059,429.627075 
	C464.305359,430.224396 446.349365,431.138031 428.373871,431.470764 
	C427.914093,431.479279 427.460327,431.811432 426.751190,432.092957 
	C426.465424,436.788452 428.667389,441.059418 429.550934,445.524811 
	C432.724609,461.564850 430.474335,476.568390 422.791412,490.940063 
	C420.921692,494.437500 419.887390,498.373688 418.348022,502.057587 
	C416.352814,506.832428 413.095581,508.615753 409.547058,507.030853 
	C406.138306,505.508392 405.067719,500.865814 407.155853,496.573486 
	C409.991669,490.744171 413.108704,485.035187 415.638031,479.076324 
	C423.212738,461.230927 421.173645,443.972473 411.634216,427.452972 
	C405.240784,416.381348 396.770569,407.028595 386.861328,398.968323 
	C386.217896,398.445007 385.573975,397.890228 385.058655,397.247223 
	C383.216125,394.948273 381.458160,392.249329 383.757202,389.633026 
	C386.309906,386.727997 390.007019,386.762146 392.761597,389.199890 
	C397.481232,393.376617 401.991638,397.854218 406.129150,402.606628 
	C410.488403,407.613770 415.161163,412.417999 418.514618,418.245514 
	C420.386871,421.499023 423.627502,421.590332 426.829559,421.681641 
	C442.484100,422.128174 458.116516,421.170715 473.759613,420.961395 
	C494.566223,420.682953 515.377930,420.800049 536.187195,420.700470 
	C539.011353,420.686951 541.834229,420.402679 545.103516,420.220825 
M691.527039,167.212738 
	C680.881409,167.541016 670.237305,167.929535 659.589905,168.185577 
	C633.805786,168.805664 608.092285,171.219574 582.282715,171.200150 
	C579.290527,171.197906 576.295898,171.421783 573.306396,171.605560 
	C569.097046,171.864349 567.075012,173.924133 567.272461,178.356796 
	C567.502136,183.510681 567.524841,188.692093 567.286560,193.845352 
	C566.287354,215.450577 565.055908,237.057724 565.679016,258.689880 
	C566.169678,275.723663 564.383667,292.545105 562.575806,309.430878 
	C561.457336,319.877258 559.120361,330.388458 561.337402,341.123840 
	C564.569397,342.669922 567.836670,341.120239 571.086304,341.029572 
	C597.040771,340.305725 622.992798,339.493164 648.947754,338.788422 
	C651.439758,338.720764 653.454651,338.323914 654.939331,336.061096 
	C656.388062,333.853241 659.019653,332.557129 660.863647,334.579895 
	C664.912048,339.020660 669.665405,337.924713 674.675781,337.878876 
	C700.147339,337.645874 725.608215,337.042572 751.040833,335.706604 
	C768.015259,334.814941 784.990540,334.596466 801.974670,334.575531 
	C806.796509,334.569611 809.058228,332.567841 809.847351,327.677246 
	C811.700745,316.191284 814.296143,304.824982 816.146973,293.338654 
	C817.945496,282.176208 820.636230,271.110962 820.875305,259.742615 
	C821.452454,232.292892 821.632446,204.827332 826.607300,177.679031 
	C827.489685,172.863907 826.139648,171.644180 821.130310,172.266693 
	C811.732300,173.434631 802.346252,174.708145 792.971924,176.053986 
	C789.418762,176.564087 786.120300,175.997543 783.838379,173.279495 
	C781.124268,170.046539 777.624329,168.952499 773.781372,168.399506 
	C765.376160,167.190018 756.931702,166.258423 748.431763,166.353485 
	C729.793030,166.561935 711.156006,166.911575 691.527039,167.212738 
M656.330811,413.183197 
	C664.472534,412.804138 672.612366,412.375702 680.756470,412.056244 
	C698.066833,411.377197 715.354248,412.310486 732.641052,412.979523 
	C736.936951,413.145782 738.565979,411.614166 737.433594,407.400818 
	C733.034363,391.032227 730.205383,374.262390 724.622803,358.191010 
	C720.690735,346.871307 720.833008,346.730438 708.910461,346.957581 
	C694.610291,347.230072 680.314880,347.765320 666.014282,347.989014 
	C662.320007,348.046814 660.268311,349.254486 659.201538,352.960114 
	C657.455322,359.025635 655.375427,365.009521 653.145752,370.918213 
	C649.323853,381.046051 645.547913,391.208771 644.352844,402.022705 
	C643.046631,413.842590 643.266541,413.866882 656.330811,413.183197 
z"/>
<path fill="#000000" opacity="1.000000" stroke="none" 
	d="
M236.016663,382.021942 
	C231.094345,375.566803 225.313095,369.835144 221.231995,362.654388 
	C213.234299,348.582275 207.476151,333.696350 206.229095,317.607117 
	C204.877777,300.172729 211.896820,285.897705 227.800522,277.524139 
	C234.474716,274.010040 241.338943,271.126831 248.782455,269.740631 
	C251.287460,269.274170 253.759094,268.629303 255.001923,271.955933 
	C256.333191,275.519257 253.558090,276.482635 251.415512,277.377136 
	C243.428375,280.711823 235.378601,283.816223 228.428116,289.216248 
	C220.889648,295.073090 217.589859,302.860168 217.136108,312.143188 
	C216.316055,328.920288 221.964783,344.038361 230.029785,358.170044 
	C241.721359,378.656250 260.316010,389.042755 283.248657,392.924377 
	C302.860779,396.243958 322.461151,397.467957 341.538177,391.350555 
	C365.240936,383.749847 382.126740,368.297485 390.018188,344.165314 
	C393.980194,332.049530 391.135040,320.317566 386.263702,309.171478 
	C377.259583,288.569305 364.918610,270.496704 345.878632,257.591766 
	C328.406647,245.749603 309.184143,239.532852 288.200409,239.463486 
	C277.760254,239.428970 269.349640,245.318100 261.455322,251.624496 
	C258.835480,253.717361 256.148010,255.309906 252.916702,252.980469 
	C250.139191,250.978195 250.182510,248.105713 251.281128,245.338165 
	C252.101807,243.270676 254.268829,242.304077 256.010681,241.020950 
	C272.403442,228.945221 290.400909,226.477798 310.014404,231.047272 
	C342.416840,238.596222 367.804352,255.635468 384.974548,284.449738 
	C391.294586,295.055786 397.356415,305.716980 400.211578,317.916687 
	C401.316803,322.639038 402.485382,327.350983 402.305359,332.178772 
	C402.141449,336.575745 403.336090,337.688965 408.037384,337.414581 
	C424.816620,336.435211 441.640717,335.906128 458.422699,337.658203 
	C461.416870,337.970764 464.377960,338.691162 466.768280,340.668701 
	C468.882843,342.418060 469.760834,344.762512 468.540314,347.344513 
	C467.290588,349.988373 465.102570,350.555389 462.253174,349.802216 
	C443.158844,344.755157 423.952087,347.161133 404.772827,349.167114 
	C401.608978,349.498016 399.574768,351.412628 398.125488,354.469788 
	C382.636902,387.142181 355.826904,402.447815 320.570374,404.220428 
	C300.985199,405.205109 281.662384,403.044495 262.840302,397.352417 
	C252.961212,394.364777 244.602737,388.579803 236.293579,382.134521 
	C235.998459,382.001007 236.016663,382.021942 236.016663,382.021942 
z"/>
<path fill="#000000" opacity="1.000000" stroke="none" 
	d="
M501.182159,175.660645 
	C500.969757,206.739761 499.313873,237.257553 494.628052,267.613556 
	C492.702881,280.085602 492.546326,292.821014 491.236633,305.400330 
	C489.755707,319.624023 487.438354,333.761902 487.192719,348.106110 
	C487.139130,351.235901 484.741241,352.335907 482.153076,352.713531 
	C479.345154,353.123230 477.826202,351.413666 477.235016,348.834076 
	C476.215363,344.384735 476.410034,339.826019 476.865997,335.391052 
	C479.263489,312.071472 481.755615,288.759521 484.488647,265.477081 
	C487.925110,236.202667 490.647858,206.898087 489.819733,177.374298 
	C489.542145,167.477615 489.291931,167.227936 479.422546,166.153122 
	C453.547455,163.335190 427.591919,163.270996 401.596161,163.422043 
	C363.133820,163.645554 324.668060,163.195557 286.203613,163.158722 
	C252.738464,163.126678 219.268494,162.963898 185.809982,163.472809 
	C170.522812,163.705322 155.262436,165.502655 140.078369,167.488800 
	C136.306381,167.982178 133.625259,167.158493 133.014160,163.244278 
	C132.417435,159.422241 135.167511,157.876907 138.357666,157.309891 
	C148.695633,155.472443 159.171539,154.804535 169.617905,153.960999 
	C188.221909,152.458771 206.866089,152.552063 225.516510,152.678146 
	C253.988586,152.870651 282.462738,152.745544 310.935028,152.916870 
	C341.041840,153.098007 371.151947,153.896469 401.252014,153.587936 
	C418.054077,153.415680 434.846100,152.765213 451.630920,153.763275 
	C465.400330,154.582031 479.231415,154.749664 492.853180,157.396011 
	C495.606506,157.930893 498.490051,157.834961 501.316895,157.941925 
	C504.724976,158.070862 507.559723,159.001190 508.681244,162.663666 
	C509.857147,166.503738 507.976837,169.064209 505.098907,171.184021 
	C503.563263,172.315186 501.196899,172.624115 501.182159,175.660645 
z"/>
<path fill="#000000" opacity="1.000000" stroke="none" 
	d="
M107.685356,254.345795 
	C106.868523,241.314941 106.242889,228.708801 106.325073,216.080322 
	C106.404060,203.942398 106.662376,191.804138 106.582764,179.667725 
	C106.563492,176.729568 105.388603,173.816071 104.997360,170.857864 
	C104.688545,168.522919 104.603523,165.915237 107.523781,165.062073 
	C110.203224,164.279251 112.469170,165.355621 113.971466,167.687134 
	C115.253799,169.677246 115.752602,171.924255 115.963554,174.305771 
	C116.697327,182.589401 116.898697,190.873672 116.643005,199.186951 
	C116.028465,219.167999 117.577126,239.059921 119.402313,258.929443 
	C121.274200,279.307251 123.365570,299.659088 121.255875,320.168518 
	C120.695137,325.619720 121.121101,331.091614 121.812943,336.586456 
	C122.290749,340.381378 124.019890,341.011047 127.064140,340.579498 
	C139.170059,338.863159 151.359528,339.253937 163.457718,339.983032 
	C176.058960,340.742401 188.677948,340.870728 201.260239,341.696228 
	C207.594101,342.111755 210.355652,344.830658 210.015717,348.570831 
	C209.688522,352.170929 205.978912,353.400940 199.882599,353.141693 
	C173.178467,352.006256 146.494614,348.427094 119.727646,352.407501 
	C111.933167,353.566620 108.732880,352.240173 106.854950,347.861481 
	C106.413101,346.831207 105.796791,345.370972 106.191467,344.563385 
	C111.134628,334.448608 108.512802,323.479401 109.943733,312.986908 
	C111.440300,302.013275 110.503525,291.075165 109.893501,280.102081 
	C109.422523,271.630127 108.593369,263.205688 107.685356,254.345795 
z"/>
<path fill="#000000" opacity="1.000000" stroke="none" 
	d="
M235.987671,381.992188 
	C238.920700,388.325470 238.238602,389.998077 231.509460,390.987885 
	C223.642975,392.144928 218.325897,397.152557 213.424286,402.596680 
	C201.549194,415.786163 195.612625,431.648987 193.364822,449.051819 
	C192.597778,454.990479 192.216125,461.010223 190.986282,466.851410 
	C188.207611,480.048828 190.029465,492.963226 192.373383,505.949036 
	C193.878647,514.288452 194.883469,522.717773 196.154129,531.100464 
	C196.427109,532.901306 196.615417,534.784302 197.301743,536.439087 
	C198.855286,540.184692 198.194305,543.060547 194.347946,544.608398 
	C191.222153,545.866333 187.444809,543.508545 186.587265,539.500183 
	C185.545853,534.632263 185.090759,529.641052 184.312836,524.714172 
	C182.781830,515.017700 181.205566,505.328278 179.643463,495.636658 
	C177.710007,483.641296 178.846252,471.733154 180.811340,459.878052 
	C183.035812,446.458099 183.976852,432.801544 189.524918,420.038452 
	C195.506439,406.278320 204.148895,394.820404 216.069794,385.678986 
	C221.959641,381.162415 228.095703,379.481873 235.611542,381.928589 
	C236.016663,382.021942 235.998459,382.001007 235.987671,381.992188 
z"/>
<path fill="#000000" opacity="1.000000" stroke="none" 
	d="
M169.764603,420.998413 
	C174.207596,422.225250 178.135132,423.560455 180.364899,427.583466 
	C181.046661,428.813507 181.521988,430.051086 180.545593,431.287140 
	C179.845856,432.173035 178.719101,432.352478 177.823730,431.832367 
	C171.023575,427.882202 163.519882,428.991302 156.318390,429.218933 
	C132.375885,429.975616 108.449654,431.233246 84.513229,432.200806 
	C70.150238,432.781464 55.952286,431.013550 41.820255,428.701385 
	C37.546188,428.002106 33.299603,427.212128 28.957844,427.074677 
	C26.951084,427.011139 24.863630,426.914276 23.298706,425.490387 
	C21.079325,423.471008 18.375822,421.172546 20.052473,417.901855 
	C21.531927,415.015900 24.753128,414.985809 27.614990,415.871948 
	C40.869690,419.975952 54.419910,422.425995 68.261482,423.194122 
	C78.561272,423.765656 88.830582,422.951813 99.092598,422.157257 
	C99.920418,422.093140 100.743912,421.828491 101.565247,421.846527 
	C120.212624,422.255676 138.791611,420.482483 157.413147,420.145447 
	C161.391876,420.073425 165.382446,420.655090 169.764603,420.998413 
z"/>
<path fill="#000000" opacity="1.000000" stroke="none" 
	d="
M34.275467,101.076569 
	C34.742725,96.564293 36.713089,94.699806 41.157181,94.574280 
	C46.279636,94.429588 51.374565,93.297066 56.480488,92.586662 
	C58.559826,92.297363 59.835995,91.314659 59.745342,88.993134 
	C59.440472,81.186028 59.156322,73.377960 58.907372,65.568893 
	C58.815987,62.702393 57.397820,62.237141 54.943333,63.046761 
	C52.578465,63.826824 50.187042,64.653069 47.741344,65.022644 
	C45.657475,65.337547 43.811638,64.679390 43.360073,62.065071 
	C42.939152,59.628155 42.594410,57.280231 45.613792,56.337143 
	C59.945549,51.860699 74.542679,50.295197 89.448067,52.616840 
	C92.627884,53.112122 96.875961,54.167480 96.530533,57.564678 
	C96.110428,61.696339 91.539734,60.158825 88.595932,60.246490 
	C83.441574,60.399990 78.279442,60.302307 73.120605,60.291363 
	C69.846748,60.284420 68.205086,61.830872 68.226288,65.167595 
	C68.268593,71.825691 68.204910,78.484680 68.277153,85.142296 
	C68.320374,89.124786 69.972183,91.302238 74.441566,90.839531 
	C77.733673,90.498695 81.097000,90.669228 84.416794,90.840584 
	C86.320961,90.938873 88.125938,91.775429 88.311913,93.987785 
	C88.474098,95.917000 87.054855,97.064384 85.400879,97.586067 
	C82.553902,98.484055 79.674896,99.419342 76.737572,99.853691 
	C73.694649,100.303642 71.040085,100.595543 69.473869,103.954376 
	C68.437233,106.177505 66.043091,106.008553 64.455566,104.223740 
	C62.441494,101.959358 60.114296,102.236755 57.588284,102.657974 
	C52.339287,103.533249 47.088356,104.281296 41.962849,105.873528 
	C38.149147,107.058258 34.955849,106.173210 34.275467,101.076569 
z"/>
<path fill="#000000" opacity="1.000000" stroke="none" 
	d="
M607.686035,543.999268 
	C633.142883,542.700867 658.204041,541.410522 683.318115,541.637268 
	C688.866272,541.687439 694.255920,542.248779 699.492310,544.089233 
	C701.033386,544.630920 703.023682,544.869690 703.160095,546.916199 
	C703.299561,549.009338 701.396484,549.432800 699.841492,550.042786 
	C688.780029,554.381836 677.273315,555.400269 665.559814,554.420715 
	C656.654663,553.676086 647.418091,555.501709 638.884155,551.994934 
	C628.226807,547.615601 617.112122,546.403564 605.802917,545.904968 
	C605.420959,545.888184 605.056824,545.466736 604.693604,545.239685 
	C605.244812,543.878052 606.387512,544.226196 607.686035,543.999268 
z"/>
<path fill="#000000" opacity="1.000000" stroke="none" 
	d="
M546.188782,92.165588 
	C542.631226,99.894417 542.496948,107.674858 543.396484,115.506966 
	C543.850098,119.456581 545.053711,122.818146 550.223999,123.159019 
	C553.560608,123.379005 554.463989,126.887909 552.482300,130.045898 
	C549.187561,135.296341 543.258179,135.806229 539.111206,130.857666 
	C534.249817,125.056625 533.785156,117.851357 533.428711,110.676193 
	C533.063049,103.317047 534.572021,96.195969 536.482300,88.917641 
	C534.172302,88.307686 532.226807,87.942390 530.389465,87.278030 
	C526.524536,85.880539 523.796997,83.518753 523.804749,78.957550 
	C523.808960,76.465141 524.327026,74.302391 526.739197,73.097343 
	C529.424561,71.755814 530.974426,73.400726 532.661133,75.225426 
	C535.884521,78.712578 540.649048,78.819214 544.109558,75.573318 
	C546.879028,72.975601 549.856140,68.864952 553.665039,72.404129 
	C557.632874,76.091019 553.767761,79.594429 551.264587,82.644135 
	C549.017700,85.381554 547.477417,88.486443 546.188782,92.165588 
z"/>
<path fill="#000000" opacity="1.000000" stroke="none" 
	d="
M116.796570,81.414780 
	C119.013611,75.903656 119.432999,75.855942 125.597794,79.984322 
	C133.501083,72.940674 133.501083,72.940674 139.011368,81.608406 
	C143.378403,79.444160 147.609024,76.978470 151.311493,73.694000 
	C155.721283,69.782051 158.551193,69.997826 161.946686,74.856163 
	C165.305954,79.662720 166.353241,85.601364 169.552414,90.536148 
	C170.658600,92.242455 169.270432,94.067505 167.807983,95.298172 
	C165.899887,96.903862 163.993118,96.103043 162.332489,94.861404 
	C159.515335,92.755028 158.597260,89.424980 157.283249,86.388451 
	C154.671356,80.352600 153.887131,80.212982 149.362747,85.214279 
	C146.906219,87.929756 144.448471,90.644745 142.031723,93.395485 
	C137.186203,98.910622 134.847824,98.748177 130.511688,92.474365 
	C128.758713,92.605240 128.543655,94.458458 127.445343,95.335495 
	C124.158417,97.960205 120.710594,97.279663 118.872040,93.492142 
	C117.084557,89.809822 116.476410,85.907776 116.796570,81.414780 
z"/>
<path fill="#000000" opacity="1.000000" stroke="none" 
	d="
M293.662079,96.596207 
	C284.085907,98.121056 275.172058,96.724213 266.521240,93.398354 
	C264.762207,92.722084 263.308136,91.449265 262.716614,89.639008 
	C261.900574,87.141708 260.268066,85.485649 258.330444,83.795418 
	C255.783234,81.573418 255.646805,78.545128 257.210358,75.598190 
	C258.626862,72.928413 260.882080,72.731178 263.632080,73.454666 
	C271.997772,75.655586 280.459656,77.515480 288.391266,81.115753 
	C296.188110,84.654854 298.304382,90.406181 293.662079,96.596207 
z"/>
<path fill="#000000" opacity="1.000000" stroke="none" 
	d="
M470.539490,97.786232 
	C465.680359,96.113312 462.136780,93.700974 461.373413,88.540314 
	C460.589874,83.243408 462.254181,80.431236 467.314362,78.624397 
	C471.212311,77.232559 475.060028,75.715462 479.188324,75.050362 
	C481.024933,74.754478 482.500977,75.042427 483.550903,76.607796 
	C484.719299,78.349709 483.796173,79.839485 482.684540,81.100716 
	C480.939911,83.080139 479.036713,84.919769 476.728973,87.306374 
	C483.407043,90.905884 490.313812,90.996590 497.352325,90.301064 
	C498.999542,90.138290 500.637451,89.873062 502.286438,89.738274 
	C503.998657,89.598335 505.817627,89.677162 506.489624,91.574715 
	C507.114075,93.338181 506.023865,94.777046 504.809723,95.975456 
	C501.266479,99.472748 496.655853,100.556046 492.015717,100.649956 
	C484.893646,100.794098 477.770874,100.199402 470.539490,97.786232 
z"/>
<path fill="#000000" opacity="1.000000" stroke="none" 
	d="
M221.546539,89.786209 
	C217.035690,90.033920 215.774780,87.231186 215.156433,83.896637 
	C214.564865,80.706505 216.518173,78.830963 219.022232,77.608841 
	C221.852478,76.227524 224.792725,75.016281 227.784866,74.035294 
	C232.058823,72.634071 235.739487,73.234474 237.654053,77.966103 
	C238.326050,79.626884 239.611115,80.522156 241.167389,81.298012 
	C242.789246,82.106560 244.392319,83.067963 245.763931,84.242462 
	C250.469727,88.271988 251.337326,93.983955 247.988495,97.942352 
	C244.772400,101.743858 236.893204,102.349777 232.835312,99.107643 
	C229.356796,96.328430 229.498779,93.099342 233.644485,89.718140 
	C229.464615,89.718140 225.687561,89.718140 221.546539,89.786209 
z"/>
<path fill="#000000" opacity="1.000000" stroke="none" 
	d="
M450.499603,78.551857 
	C453.619354,82.769051 454.188232,87.821800 457.117859,91.776405 
	C458.574585,93.742790 457.698669,96.052078 455.796997,97.511650 
	C453.909302,98.960449 451.929443,98.343201 450.394104,96.789032 
	C448.163422,94.530937 446.237427,91.972176 444.999969,89.046303 
	C443.445831,85.371666 441.891876,85.739143 439.808350,88.596085 
	C438.144867,90.877083 436.365265,93.095284 434.442749,95.160332 
	C431.606140,98.207268 427.561157,98.144997 425.611298,94.635559 
	C422.850769,89.667160 421.513336,84.061096 421.156372,78.430435 
	C421.006073,76.059189 421.579681,72.602051 425.120880,72.420471 
	C428.167328,72.264259 429.811859,74.600449 430.688477,77.312088 
	C431.183716,78.844063 431.475220,80.441917 431.929810,82.301933 
	C436.081085,81.316109 438.641876,78.265213 441.909393,76.490791 
	C445.364258,74.614632 448.191223,74.358788 450.499603,78.551857 
z"/>
<path fill="#000000" opacity="1.000000" stroke="none" 
	d="
M405.429810,97.394302 
	C401.871979,96.400909 398.590881,95.746918 395.533051,94.531242 
	C389.377777,92.084175 386.635040,82.131073 390.460144,76.724556 
	C391.496979,75.259094 393.009430,74.293671 394.748901,74.928162 
	C401.722687,77.471939 409.015778,79.497131 414.411224,85.056946 
	C417.188568,87.918938 419.141235,91.259491 417.142181,95.352821 
	C415.317719,99.088730 411.796387,97.767380 408.765167,97.712975 
	C407.778229,97.695267 406.793365,97.560715 405.429810,97.394302 
z"/>
<path fill="#000000" opacity="1.000000" stroke="none" 
	d="
M356.457397,76.217361 
	C357.024811,69.065773 356.712280,62.160851 359.474579,55.736950 
	C360.422455,53.532578 361.197906,50.184967 364.439148,51.542446 
	C367.659637,52.891224 368.481934,55.921890 367.359100,59.534889 
	C364.383026,69.111259 364.149200,78.767967 366.970886,88.476776 
	C367.595581,90.626205 368.632477,92.444008 369.947235,94.162621 
	C371.616852,96.345200 372.480072,98.859703 370.220856,100.814224 
	C368.002289,102.733574 365.221863,102.416092 362.911835,100.434792 
	C358.667572,96.794502 357.876190,91.554276 356.936707,86.535675 
	C356.332031,83.305634 356.570465,79.917755 356.457397,76.217361 
z"/>
<path fill="#000000" opacity="1.000000" stroke="none" 
	d="
M514.188354,51.992828 
	C517.470947,61.458290 517.152283,71.035637 518.174316,80.427277 
	C518.388000,82.390488 518.156677,84.337524 518.976318,86.296997 
	C520.200378,89.223213 519.008301,91.809143 516.223267,92.866562 
	C513.242249,93.998383 511.816132,91.580437 510.589294,89.245316 
	C509.354431,86.894943 509.888550,84.343231 509.490448,81.906494 
	C508.391327,75.179123 508.828003,68.294533 507.086975,61.604408 
	C506.399048,58.960987 506.841370,55.977776 507.031921,53.167107 
	C507.163605,51.224457 508.301605,49.655800 510.256989,49.116837 
	C512.326233,48.546471 513.189575,50.159050 514.188354,51.992828 
z"/>
<path fill="#000000" opacity="1.000000" stroke="none" 
	d="
M101.876778,67.130409 
	C102.955086,62.852463 103.868980,58.972366 104.947632,55.138626 
	C105.626167,52.726982 105.547745,49.078449 109.460846,49.954987 
	C112.700508,50.680672 114.380516,53.431423 113.953957,56.813133 
	C113.644936,59.263020 112.989639,61.746696 112.030891,64.022415 
	C109.316238,70.466064 109.299911,77.324287 108.509445,84.078224 
	C108.268654,86.135597 108.385002,89.028458 105.570457,89.175499 
	C102.783493,89.321106 101.675751,86.592743 101.299767,84.369545 
	C100.353004,78.771423 100.289925,73.115982 101.876778,67.130409 
z"/>
<path fill="#000000" opacity="1.000000" stroke="none" 
	d="
M663.276123,103.016724 
	C659.833130,103.806114 658.063904,101.738861 657.189026,99.469460 
	C656.167725,96.820084 656.288208,93.836784 658.344421,91.441315 
	C659.752380,89.801003 661.705933,88.988731 663.737854,89.751884 
	C666.067200,90.626762 667.333069,92.692535 667.731018,95.110291 
	C668.320374,98.690315 666.711304,101.217941 663.276123,103.016724 
z"/>
<path fill="#000000" opacity="1.000000" stroke="none" 
	d="
M575.181152,99.414230 
	C574.343506,99.236160 573.818604,99.175446 573.408875,98.925835 
	C570.124329,96.924568 569.037781,93.996574 570.338501,90.434669 
	C571.226868,88.001785 572.840393,85.813568 575.855774,86.588882 
	C579.059570,87.412636 580.827576,89.945602 581.007019,93.156624 
	C581.210327,96.796471 579.403870,99.116676 575.181152,99.414230 
z"/>
<path fill="#000000" opacity="1.000000" stroke="none" 
	d="
M614.721008,100.605240 
	C611.300415,102.219757 608.827515,101.271431 607.456726,98.298439 
	C606.114014,95.386147 606.576538,92.453140 608.845459,90.045616 
	C610.401855,88.394112 612.577576,87.992928 614.212769,89.385956 
	C616.329468,91.189095 617.975586,93.557640 617.377075,96.716774 
	C617.082336,98.272430 616.086182,99.353195 614.721008,100.605240 
z"/>
<path fill="#000000" opacity="1.000000" stroke="none" 
	d="
M809.283997,545.269043 
	C807.710266,551.380005 807.339783,551.607117 801.188293,550.069336 
	C802.124146,547.804382 804.592102,545.816406 802.506409,542.972656 
	C805.034790,541.628479 807.256958,540.448669 809.674622,541.973816 
	C810.983582,542.799500 810.107483,544.013550 809.283997,545.269043 
z"/>
</svg>